RobotoSerifTextWide-HairlineItalic 01h.ufo
<glyph name="period" format="2">
  <advance width="223"/>
  <unicode hex="002E"/>
  <outline>
    <contour>
      <point x="141" y="28" type="curve" smooth="yes"/>
      <point x="141" y="52"/>
      <point x="125" y="66"/>
      <point x="101" y="66" type="curve" smooth="yes"/>
      <point x="78" y="66"/>
      <point x="61" y="52"/>
      <point x="61" y="28" type="curve" smooth="yes"/>
      <point x="61" y="5"/>
      <point x="78" y="-10"/>
      <point x="101" y="-10" type="curve" smooth="yes"/>
      <point x="125" y="-10"/>
      <point x="141" y="5"/>
    </contour>
  </outline>
</glyph>
<glyph name="zero" format="2">
  <advance width="652"/>
  <unicode hex="0030"/>
  <outline>
    <contour>
      <point x="296" y="-11" type="curve" smooth="yes"/>
      <point x="480" y="-11"/>
      <point x="616" y="154"/>
      <point x="616" y="342" type="curve" smooth="yes"/>
      <point x="616" y="508"/>
      <point x="508" y="619"/>
      <point x="370" y="619" type="curve" smooth="yes"/>
      <point x="186" y="619"/>
      <point x="50" y="454"/>
      <point x="50" y="266" type="curve" smooth="yes"/>
      <point x="50" y="102"/>
      <point x="158" y="-11"/>
    </contour>
    <contour>
      <point x="299" y="20" type="curve"/>
      <point x="172" y="20"/>
      <point x="93" y="116"/>
      <point x="93" y="259" type="curve" smooth="yes"/>
      <point x="93" y="283"/>
      <point x="95" y="306"/>
      <point x="99" y="329" type="curve" smooth="yes"/>
      <point x="126" y="475"/>
      <point x="233" y="588"/>
      <point x="368" y="588" type="curve"/>
      <point x="491" y="588"/>
      <point x="574" y="495"/>
      <point x="574" y="347" type="curve" smooth="yes"/>
      <point x="574" y="323"/>
      <point x="572" y="300"/>
      <point x="568" y="277" type="curve" smooth="yes"/>
      <point x="541" y="132"/>
      <point x="432" y="20"/>
    </contour>
  </outline>
</glyph>
<glyph name="two" format="2">
  <advance width="652"/>
  <unicode hex="0032"/>
  <outline>
    <contour>
      <point x="14" y="0" type="line"/>
      <point x="20" y="44" type="line"/>
      <point x="317" y="183"/>
      <point x="538" y="293"/>
      <point x="538" y="449" type="curve" smooth="yes"/>
      <point x="538.0" y="545"/>
      <point x="462" y="587.0"/>
      <point x="354" y="587" type="curve" smooth="yes"/>
      <point x="262" y="587"/>
      <point x="198" y="553"/>
      <point x="142" y="512" type="curve"/>
      <point x="169" y="552"/>
      <point x="167" y="559"/>
      <point x="180" y="559" type="curve"/>
      <point x="161" y="452" type="line"/>
      <point x="110" y="452" type="line"/>
      <point x="127" y="549" type="line"/>
      <point x="170" y="578"/>
      <point x="249" y="618"/>
      <point x="353" y="618" type="curve" smooth="yes"/>
      <point x="483" y="618.0"/>
      <point x="582.0" y="563.0707742964553"/>
      <point x="582" y="448" type="curve" smooth="yes"/>
      <point x="582" y="277"/>
      <point x="315" y="145"/>
      <point x="52" y="27" type="curve"/>
      <point x="52" y="38" type="line"/>
      <point x="358" y="38" type="line" smooth="yes"/>
      <point x="460" y="38"/>
      <point x="502" y="45"/>
      <point x="513" y="81" type="curve" smooth="yes"/>
      <point x="538" y="166" type="line"/>
      <point x="565" y="166" type="line"/>
      <point x="540" y="0" type="line"/>
    </contour>
  </outline>
</glyph>
<glyph name="six" format="2">
  <advance width="652"/>
  <unicode hex="0036"/>
  <outline>
    <contour>
      <point x="344" y="-10" type="curve" smooth="yes"/>
      <point x="502" y="-10"/>
      <point x="612" y="108"/>
      <point x="612" y="243" type="curve" smooth="yes"/>
      <point x="612" y="363"/>
      <point x="522" y="459"/>
      <point x="366" y="459" type="curve" smooth="yes"/>
      <point x="255" y="459"/>
      <point x="152" y="396"/>
      <point x="96" y="291" type="curve"/>
      <point x="108" y="264" type="line"/>
      <point x="164" y="368"/>
      <point x="259" y="428"/>
      <point x="369" y="428" type="curve" smooth="yes"/>
      <point x="497" y="428"/>
      <point x="569" y="343"/>
      <point x="569" y="242" type="curve" smooth="yes"/>
      <point x="569" y="206"/>
      <point x="562" y="172"/>
      <point x="546" y="141" type="curve" smooth="yes"/>
      <point x="511" y="71"/>
      <point x="438" y="21"/>
      <point x="342" y="21" type="curve" smooth="yes"/>
      <point x="215" y="21"/>
      <point x="116" y="97"/>
      <point x="116" y="263" type="curve" smooth="yes"/>
      <point x="116" y="288"/>
      <point x="117" y="306"/>
      <point x="120" y="323" type="curve" smooth="yes"/>
      <point x="157" y="532"/>
      <point x="361" y="687"/>
      <point x="608" y="709" type="curve"/>
      <point x="607" y="740" type="line"/>
      <point x="274" y="709"/>
      <point x="73" y="475"/>
      <point x="73" y="259" type="curve" smooth="yes"/>
      <point x="73" y="83"/>
      <point x="200" y="-10"/>
    </contour>
  </outline>
</glyph>
<glyph name="D" format="2">
  <advance width="824"/>
  <unicode hex="0044"/>
  <anchor x="411" y="741" name="top"/>
  <anchor x="411" y="0" name="bottom"/>
  <outline>
    <contour>
      <point x="346" y="679" type="line" smooth="yes"/>
      <point x="619.5762355826993" y="679"/>
      <point x="740.0" y="560.0"/>
      <point x="740" y="383" type="curve" smooth="yes"/>
      <point x="740.0" y="198"/>
      <point x="633.7633928571429" y="31"/>
      <point x="291" y="31" type="curve" smooth="yes"/>
      <point x="151" y="31" type="line"/>
      <point x="265" y="679" type="line"/>
    </contour>
    <contour>
      <point x="113" y="679" type="line"/>
      <point x="125" y="679" type="line" smooth="yes"/>
      <point x="182" y="679"/>
      <point x="223" y="670"/>
      <point x="218" y="643" type="curve" smooth="yes"/>
      <point x="117" y="68" type="line" smooth="yes"/>
      <point x="112" y="39"/>
      <point x="71" y="31"/>
      <point x="14" y="31" type="curve" smooth="yes"/>
      <point x="-1" y="31" type="line"/>
      <point x="-6" y="0" type="line"/>
      <point x="288" y="0" type="line" smooth="yes"/>
      <point x="653" y="0"/>
      <point x="783" y="179"/>
      <point x="783" y="382" type="curve" smooth="yes"/>
      <point x="783.0" y="571"/>
      <point x="651.1882550476173" y="710.0"/>
      <point x="348" y="710" type="curve" smooth="yes"/>
      <point x="118" y="710" type="line"/>
    </contour>
  </outline>
</glyph>
<glyph name="F" format="2">
  <advance width="666"/>
  <unicode hex="0046"/>
  <outline>
    <contour>
      <point x="-6" y="0.0" type="line"/>
      <point x="276" y="0.0" type="line"/>
      <point x="283" y="31.0" type="line"/>
      <point x="263" y="31.0" type="line" smooth="yes"/>
      <point x="212.03846153846155" y="31.0"/>
      <point x="150.83025657591185" y="32.038120596833835"/>
      <point x="157" y="67.0" type="curve" smooth="yes"/>
      <point x="265" y="679.0" type="line"/>
      <point x="469" y="679.0" type="line" smooth="yes"/>
      <point x="570" y="679"/>
      <point x="611" y="672.0"/>
      <point x="609" y="636.0" type="curve" smooth="yes"/>
      <point x="603" y="546.0" type="line"/>
      <point x="629" y="546.0" type="line"/>
      <point x="658" y="710.0" type="line"/>
      <point x="118" y="710.0" type="line"/>
      <point x="113" y="679.0" type="line"/>
      <point x="124" y="679.0" type="line" smooth="yes"/>
      <point x="184" y="679"/>
      <point x="223" y="671"/>
      <point x="218" y="642.0" type="curve" smooth="yes"/>
      <point x="116" y="65.0" type="line" smooth="yes"/>
      <point x="111.1857604763403" y="37.766507792630904"/>
      <point x="70.0" y="31.0"/>
      <point x="13" y="31.0" type="curve" smooth="yes"/>
      <point x="-1" y="31.0" type="line"/>
    </contour>
    <contour>
      <point x="194" y="371.0" type="curve"/>
      <point x="189" y="342.0" type="line"/>
      <point x="297" y="341.0"/>
      <point x="403" y="339.0"/>
      <point x="507" y="338.0" type="curve"/>
      <point x="513" y="375.0" type="line"/>
      <point x="409" y="374.0"/>
      <point x="303" y="372.0"/>
    </contour>
  </outline>
</glyph>
<glyph name="I" format="2">
  <advance width="364"/>
  <unicode hex="0049"/>
  <anchor x="183" y="741" name="top"/>
  <anchor x="232" y="0" name="right"/>
  <anchor x="183" y="0" name="bottom"/>
  <outline>
    <contour>
      <point x="116" y="65" type="line" smooth="yes"/>
      <point x="111" y="37"/>
      <point x="66" y="31"/>
      <point x="12" y="31" type="curve" smooth="yes"/>
      <point x="-1" y="31" type="line"/>
      <point x="-6" y="0" type="line"/>
      <point x="258" y="0" type="line"/>
      <point x="263" y="31" type="line"/>
      <point x="250" y="31" type="line" smooth="yes"/>
      <point x="190" y="31"/>
      <point x="152" y="39"/>
      <point x="157" y="68" type="curve" smooth="yes"/>
      <point x="259" y="646" type="line" smooth="yes"/>
      <point x="264" y="675"/>
      <point x="309" y="679"/>
      <point x="364" y="679" type="curve" smooth="yes"/>
      <point x="376" y="679" type="line"/>
      <point x="381" y="710" type="line"/>
      <point x="117" y="710" type="line"/>
      <point x="112" y="679" type="line"/>
      <point x="125" y="679" type="line" smooth="yes"/>
      <point x="185" y="679"/>
      <point x="223" y="672"/>
      <point x="218" y="643" type="curve" smooth="yes"/>
    </contour>
  </outline>
</glyph>
<glyph name="L" format="2">
  <advance width="667"/>
  <unicode hex="004C"/>
  <anchor x="391" y="741" name="top"/>
  <anchor x="476" y="710" name="right"/>
  <anchor x="477" y="410" name="mid"/>
  <anchor x="391" y="0" name="bottom"/>
  <outline>
    <contour>
      <point x="386" y="710" type="line"/>
      <point x="117" y="710" type="line"/>
      <point x="112" y="679" type="line"/>
      <point x="125" y="679" type="line" smooth="yes"/>
      <point x="181.3936170212766" y="679"/>
      <point x="223" y="672"/>
      <point x="218" y="643" type="curve" smooth="yes"/>
      <point x="116" y="64" type="line" smooth="yes"/>
      <point x="111.37141501271638" y="37.725973454537154"/>
      <point x="68" y="31"/>
      <point x="12" y="31" type="curve" smooth="yes"/>
      <point x="-1" y="31" type="line"/>
      <point x="-6" y="0" type="line"/>
      <point x="548" y="0" type="line"/>
      <point x="581" y="196" type="line"/>
      <point x="554" y="196" type="line"/>
      <point x="520" y="74" type="line" smooth="yes"/>
      <point x="511" y="38"/>
      <point x="470" y="32"/>
      <point x="369" y="31" type="curve" smooth="yes"/>
      <point x="150" y="28" type="line"/>
      <point x="258" y="641" type="line" smooth="yes"/>
      <point x="264" y="673"/>
      <point x="307.0" y="679"/>
      <point x="368" y="679" type="curve" smooth="yes"/>
      <point x="381" y="679" type="line"/>
    </contour>
  </outline>
</glyph>
<glyph name="Y" format="2">
  <advance width="757"/>
  <unicode hex="0059"/>
  <anchor x="392" y="741" name="top"/>
  <anchor x="392" y="0" name="bottom"/>
  <outline>
    <contour>
      <point x="184" y="0" type="line"/>
      <point x="459" y="0" type="line"/>
      <point x="464" y="31" type="line"/>
      <point x="445" y="31" type="line" smooth="yes"/>
      <point x="386.63440860215053" y="31"/>
      <point x="348" y="38"/>
      <point x="353" y="69" type="curve" smooth="yes"/>
      <point x="395" y="309" type="line"/>
      <point x="378" y="277" type="line"/>
      <point x="688" y="638" type="line" smooth="yes"/>
      <point x="720" y="675"/>
      <point x="754" y="679"/>
      <point x="794" y="679" type="curve" smooth="yes"/>
      <point x="799" y="679" type="line"/>
      <point x="804" y="710" type="line"/>
      <point x="559" y="710" type="line"/>
      <point x="554" y="679" type="line"/>
      <point x="571" y="679" type="line" smooth="yes"/>
      <point x="616" y="679"/>
      <point x="668" y="672"/>
      <point x="665" y="661" type="curve"/>
      <point x="352" y="298" type="line"/>
      <point x="389" y="309" type="line"/>
      <point x="204" y="669" type="line"/>
      <point x="205" y="676"/>
      <point x="258" y="679"/>
      <point x="300" y="679" type="curve" smooth="yes"/>
      <point x="320" y="679" type="line"/>
      <point x="325" y="710" type="line"/>
      <point x="82" y="710" type="line"/>
      <point x="77" y="679" type="line"/>
      <point x="83" y="679" type="line" smooth="yes"/>
      <point x="122" y="679"/>
      <point x="154" y="679"/>
      <point x="167" y="653" type="curve" smooth="yes"/>
      <point x="361" y="279" type="line"/>
      <point x="355" y="311" type="line"/>
      <point x="312" y="67" type="line" smooth="yes"/>
      <point x="306.89121802466934" y="38.01063251207715"/>
      <point x="261.5192307692308" y="31"/>
      <point x="207" y="31" type="curve" smooth="yes"/>
      <point x="189" y="31" type="line"/>
    </contour>
  </outline>
</glyph>
<glyph name="a" format="2">
  <advance width="617"/>
  <unicode hex="0061"/>
  <anchor x="290" y="508" name="top"/>
  <anchor x="442" y="-10" name="right"/>
  <anchor x="318" y="0" name="bottom"/>
  <outline>
    <contour>
      <point x="516" y="-7" type="curve" smooth="yes"/>
      <point x="545" y="-7"/>
      <point x="577" y="4"/>
      <point x="591" y="13" type="curve"/>
      <point x="596" y="42" type="line"/>
      <point x="586.8914051321537" y="39.975867807145285"/>
      <point x="556.506329113924" y="24.0"/>
      <point x="516" y="24" type="curve" smooth="yes"/>
      <point x="490" y="24"/>
      <point x="474" y="34"/>
      <point x="474" y="58" type="curve" smooth="yes"/>
      <point x="474" y="80"/>
      <point x="478" y="110"/>
      <point x="483" y="136" type="curve" smooth="yes"/>
      <point x="549" y="508" type="line"/>
      <point x="527" y="508" type="line"/>
      <point x="497" y="420" type="line"/>
      <point x="490" y="408" type="line"/>
      <point x="451" y="176" type="line"/>
      <point x="449" y="168" type="line"/>
      <point x="440.076984580264" y="132.3079383210561"/>
      <point x="434.0" y="88.72727272727272"/>
      <point x="434" y="59" type="curve" smooth="yes"/>
      <point x="434.0" y="12.292307692307688"/>
      <point x="468.0" y="-7.0"/>
    </contour>
    <contour>
      <point x="212" y="-11" type="curve" smooth="yes"/>
      <point x="323" y="-11"/>
      <point x="403" y="74"/>
      <point x="475" y="209" type="curve"/>
      <point x="468" y="241" type="line"/>
      <point x="397" y="113"/>
      <point x="319" y="20"/>
      <point x="213" y="20" type="curve" smooth="yes"/>
      <point x="135.60760107007434" y="20.0"/>
      <point x="91.0" y="85"/>
      <point x="91" y="183" type="curve" smooth="yes"/>
      <point x="91" y="325"/>
      <point x="180" y="487"/>
      <point x="339" y="487" type="curve" smooth="yes"/>
      <point x="418" y="487"/>
      <point x="485" y="437"/>
      <point x="499" y="346" type="curve"/>
      <point x="520" y="379" type="line"/>
      <point x="504" y="469"/>
      <point x="425" y="518"/>
      <point x="338" y="518" type="curve" smooth="yes"/>
      <point x="160" y="518"/>
      <point x="48" y="344"/>
      <point x="48" y="183" type="curve" smooth="yes"/>
      <point x="48.0" y="67"/>
      <point x="107.31744027982208" y="-11.0"/>
    </contour>
  </outline>
</glyph>
<glyph name="b" format="2">
  <advance width="654"/>
  <unicode hex="0062"/>
  <outline>
    <contour>
      <point x="308" y="-11" type="curve" smooth="yes"/>
      <point x="493" y="-11"/>
      <point x="608" y="140"/>
      <point x="608" y="311" type="curve" smooth="yes"/>
      <point x="608.0" y="426.0405331399305"/>
      <point x="558.3587686974636" y="518.0"/>
      <point x="433" y="518" type="curve" smooth="yes"/>
      <point x="318" y="518"/>
      <point x="235" y="433"/>
      <point x="162" y="299" type="curve"/>
      <point x="169" y="267" type="line"/>
      <point x="242" y="394"/>
      <point x="323" y="487"/>
      <point x="433" y="487" type="curve" smooth="yes"/>
      <point x="529.0417602967943" y="487.0"/>
      <point x="565.0" y="405.04943712072026"/>
      <point x="565" y="310" type="curve" smooth="yes"/>
      <point x="565" y="156"/>
      <point x="474" y="20"/>
      <point x="306" y="20" type="curve" smooth="yes"/>
      <point x="227" y="20"/>
      <point x="146" y="58"/>
      <point x="119" y="100" type="curve"/>
      <point x="115" y="81"/>
      <point x="123" y="71"/>
      <point x="140" y="61" type="curve"/>
      <point x="259" y="735" type="line"/>
      <point x="122" y="735" type="line"/>
      <point x="117" y="709" type="line"/>
      <point x="128" y="707" type="line" smooth="yes"/>
      <point x="183" y="697"/>
      <point x="211" y="690"/>
      <point x="206" y="661" type="curve" smooth="yes"/>
      <point x="100" y="61" type="line"/>
      <point x="135" y="27"/>
      <point x="214" y="-11"/>
    </contour>
  </outline>
</glyph>
<glyph name="g" format="2">
  <advance width="618"/>
  <unicode hex="0067"/>
  <anchor x="292" y="508" name="top"/>
  <outline>
    <contour>
      <point x="434" y="-11" type="line" smooth="yes"/>
      <point x="412" y="-134"/>
      <point x="342" y="-192"/>
      <point x="204" y="-192" type="curve" smooth="yes"/>
      <point x="118" y="-192"/>
      <point x="36" y="-159"/>
      <point x="24" y="-117" type="curve"/>
      <point x="18" y="-154"/>
      <point x="34" y="-164"/>
      <point x="39" y="-166" type="curve"/>
      <point x="55" y="-76" type="line"/>
      <point x="3" y="-76" type="line"/>
      <point x="-10" y="-149" type="line"/>
      <point x="18" y="-184"/>
      <point x="102" y="-222"/>
      <point x="205" y="-222" type="curve" smooth="yes"/>
      <point x="367" y="-222"/>
      <point x="450" y="-147"/>
      <point x="474" y="-11" type="curve" smooth="yes"/>
      <point x="566" y="511" type="line"/>
      <point x="539" y="511" type="line"/>
      <point x="512" y="417" type="line"/>
      <point x="510" y="421" type="line"/>
    </contour>
    <contour>
      <point x="221" y="-5" type="curve" smooth="yes"/>
      <point x="336" y="-5"/>
      <point x="423" y="79"/>
      <point x="496" y="214" type="curve"/>
      <point x="489" y="246" type="line"/>
      <point x="416" y="119"/>
      <point x="331" y="26"/>
      <point x="221" y="26" type="curve" smooth="yes"/>
      <point x="123.86768686496266" y="26.0"/>
      <point x="88.0" y="103"/>
      <point x="88" y="201" type="curve" smooth="yes"/>
      <point x="88" y="353"/>
      <point x="179" y="487"/>
      <point x="347" y="487" type="curve" smooth="yes"/>
      <point x="432" y="487"/>
      <point x="501" y="437"/>
      <point x="517" y="347" type="curve"/>
      <point x="538" y="380" type="line"/>
      <point x="520" y="469"/>
      <point x="439" y="518"/>
      <point x="346" y="518" type="curve" smooth="yes"/>
      <point x="161" y="518"/>
      <point x="45" y="369"/>
      <point x="45" y="200" type="curve" smooth="yes"/>
      <point x="45.0" y="84"/>
      <point x="95.60163545135433" y="-5.0"/>
    </contour>
  </outline>
</glyph>
<glyph name="p" format="2">
  <advance width="657"/>
  <unicode hex="0070"/>
  <outline>
    <contour>
      <point x="-47" y="-223" type="line"/>
      <point x="211" y="-223" type="line"/>
      <point x="214" y="-195" type="line"/>
      <point x="181" y="-195" type="line" smooth="yes"/>
      <point x="151" y="-195"/>
      <point x="97" y="-192"/>
      <point x="98" y="-185" type="curve" smooth="yes"/>
      <point x="186" y="318" type="line"/>
      <point x="188" y="329" type="line"/>
      <point x="220" y="508" type="line"/>
      <point x="83" y="508" type="line"/>
      <point x="78" y="482" type="line"/>
      <point x="89" y="480" type="line" smooth="yes"/>
      <point x="145" y="470"/>
      <point x="172" y="464"/>
      <point x="167" y="435" type="curve" smooth="yes"/>
      <point x="62" y="-162" type="line" smooth="yes"/>
      <point x="57" y="-189"/>
      <point x="14" y="-195"/>
      <point x="-41" y="-195" type="curve" smooth="yes"/>
      <point x="-44" y="-195" type="line"/>
    </contour>
    <contour>
      <point x="610.0" y="427"/>
      <point x="559.3587686974636" y="518.0"/>
      <point x="434" y="518" type="curve" smooth="yes"/>
      <point x="319" y="518"/>
      <point x="236" y="433"/>
      <point x="163" y="299" type="curve"/>
      <point x="169" y="267" type="line"/>
      <point x="243" y="394"/>
      <point x="324" y="487"/>
      <point x="434" y="487" type="curve" smooth="yes"/>
      <point x="530.0417602967943" y="487.0"/>
      <point x="567.0" y="406"/>
      <point x="567" y="310" type="curve" smooth="yes"/>
      <point x="567" y="156"/>
      <point x="476" y="20"/>
      <point x="308" y="20" type="curve" smooth="yes"/>
      <point x="222" y="20"/>
      <point x="153" y="70"/>
      <point x="138" y="159" type="curve"/>
      <point x="118" y="126" type="line"/>
      <point x="134" y="38"/>
      <point x="214" y="-11"/>
      <point x="309" y="-11" type="curve" smooth="yes"/>
      <point x="494" y="-11"/>
      <point x="610" y="140"/>
      <point x="610" y="311" type="curve" smooth="yes"/>
    </contour>
  </outline>
</glyph>
<glyph name="q" format="2">
  <advance width="617"/>
  <unicode hex="0071"/>
  <outline>
    <contour>
      <point x="278" y="-223" type="line"/>
      <point x="536" y="-223" type="line"/>
      <point x="539" y="-195" type="line"/>
      <point x="537" y="-195" type="line"/>
      <point x="480" y="-195"/>
      <point x="443" y="-189"/>
      <point x="448" y="-163" type="curve" smooth="yes"/>
      <point x="566" y="511" type="line"/>
      <point x="539" y="511" type="line"/>
      <point x="512" y="414" type="line"/>
      <point x="510" y="420" type="line"/>
      <point x="404" y="-186" type="line"/>
      <point x="403" y="-192"/>
      <point x="346" y="-195"/>
      <point x="316" y="-195" type="curve" smooth="yes"/>
      <point x="282" y="-195" type="line"/>
    </contour>
    <contour>
      <point x="45.0" y="79"/>
      <point x="95.6412313025364" y="-11.0"/>
      <point x="221" y="-11" type="curve" smooth="yes"/>
      <point x="336" y="-11"/>
      <point x="419" y="74"/>
      <point x="492" y="208" type="curve"/>
      <point x="485" y="240" type="line"/>
      <point x="412" y="113"/>
      <point x="331" y="20"/>
      <point x="221" y="20" type="curve" smooth="yes"/>
      <point x="124.95823970320566" y="20.0"/>
      <point x="88.0" y="100"/>
      <point x="88" y="197" type="curve" smooth="yes"/>
      <point x="88" y="351"/>
      <point x="179" y="487"/>
      <point x="347" y="487" type="curve" smooth="yes"/>
      <point x="432" y="487"/>
      <point x="501" y="437"/>
      <point x="517" y="347" type="curve"/>
      <point x="538" y="380" type="line"/>
      <point x="520" y="469"/>
      <point x="439" y="518"/>
      <point x="346" y="518" type="curve" smooth="yes"/>
      <point x="161" y="518"/>
      <point x="45" y="367"/>
      <point x="45" y="196" type="curve" smooth="yes"/>
    </contour>
  </outline>
</glyph>
<glyph name="s" format="2">
  <advance width="512"/>
  <unicode hex="0073"/>
  <anchor x="257" y="508" name="top"/>
  <anchor x="259" y="0" name="bottom"/>
  <outline>
    <contour>
      <point x="243" y="-11" type="curve" smooth="yes"/>
      <point x="375" y="-11"/>
      <point x="448" y="44"/>
      <point x="448" y="128" type="curve" smooth="yes"/>
      <point x="448.0" y="215.05230967266363"/>
      <point x="356.88318373195443" y="244.63975400407122"/>
      <point x="280" y="276" type="curve" smooth="yes"/>
      <point x="203" y="307"/>
      <point x="152.0" y="324"/>
      <point x="152" y="389" type="curve" smooth="yes"/>
      <point x="152" y="450"/>
      <point x="206" y="487"/>
      <point x="301" y="487" type="curve" smooth="yes"/>
      <point x="374" y="487"/>
      <point x="421" y="463"/>
      <point x="443" y="435" type="curve"/>
      <point x="442" y="445"/>
      <point x="431" y="461"/>
      <point x="418" y="469" type="curve"/>
      <point x="406" y="395" type="line"/>
      <point x="456" y="395" type="line"/>
      <point x="470" y="471" type="line"/>
      <point x="457" y="484"/>
      <point x="403" y="518"/>
      <point x="299" y="518" type="curve" smooth="yes"/>
      <point x="190" y="518"/>
      <point x="110" y="471"/>
      <point x="110" y="388" type="curve" smooth="yes"/>
      <point x="110.0" y="306"/>
      <point x="170" y="281"/>
      <point x="248" y="249" type="curve" smooth="yes"/>
      <point x="322.1400684617868" y="218.53147871433418"/>
      <point x="406.0" y="192.03124237432843"/>
      <point x="406" y="127" type="curve" smooth="yes"/>
      <point x="406" y="55"/>
      <point x="344" y="20"/>
      <point x="241" y="20" type="curve" smooth="yes"/>
      <point x="160" y="20"/>
      <point x="90" y="44"/>
      <point x="44" y="88" type="curve"/>
      <point x="47" y="69"/>
      <point x="59" y="49"/>
      <point x="74" y="32" type="curve"/>
      <point x="90" y="133" type="line"/>
      <point x="39" y="133" type="line"/>
      <point x="25" y="55" type="line"/>
      <point x="62" y="23"/>
      <point x="140" y="-11"/>
    </contour>
  </outline>
</glyph>
<glyph name="ibreve" format="2">
  <advance width="303"/>
  <unicode hex="012D"/>
  <outline>
    <contour>
      <point x="179" y="594" type="curve" smooth="yes"/>
      <point x="100" y="594"/>
      <point x="51" y="634"/>
      <point x="49" y="711" type="curve" smooth="yes"/>
      <point x="49" y="716"/>
      <point x="48" y="726"/>
      <point x="49" y="736" type="curve"/>
      <point x="78" y="736" type="line"/>
      <point x="78" y="670"/>
      <point x="103" y="637"/>
      <point x="183" y="637" type="curve" smooth="yes"/>
      <point x="240" y="637"/>
      <point x="282" y="662"/>
      <point x="299" y="736" type="curve"/>
      <point x="327" y="736" type="line"/>
      <point x="309" y="636"/>
      <point x="251" y="594"/>
    </contour>
    <component base="dotlessi"/>
  </outline>
</glyph>
<glyph name="iogonek" format="2">
  <advance width="303"/>
  <unicode hex="012F"/>
  <outline>
    <contour>
      <point x="236" y="21" type="line"/>
      <point x="115" y="-24"/>
      <point x="36" y="-80"/>
      <point x="38" y="-145" type="curve" smooth="yes"/>
      <point x="39" y="-197"/>
      <point x="79" y="-233"/>
      <point x="148" y="-233" type="curve" smooth="yes"/>
      <point x="192" y="-233"/>
      <point x="230" y="-212"/>
      <point x="265" y="-181" type="curve"/>
      <point x="245" y="-159" type="line"/>
      <point x="215" y="-184"/>
      <point x="185" y="-202"/>
      <point x="144" y="-202" type="curve" smooth="yes"/>
      <point x="106" y="-202"/>
      <point x="82" y="-180"/>
      <point x="81" y="-145" type="curve" smooth="yes"/>
      <point x="79" y="-90"/>
      <point x="127" y="-48"/>
      <point x="248" y="6" type="curve"/>
    </contour>
    <component base="i"/>
  </outline>
</glyph>
<glyph name="idieresisacute" format="2">
  <advance width="303"/>
  <unicode hex="1E2F"/>
  <outline>
    <contour>
      <point x="75" y="656" type="curve" smooth="yes"/>
      <point x="49" y="656"/>
      <point x="31" y="670"/>
      <point x="30" y="696" type="curve" smooth="yes"/>
      <point x="29" y="723"/>
      <point x="47" y="737"/>
      <point x="73" y="737" type="curve" smooth="yes"/>
      <point x="98" y="737"/>
      <point x="117" y="723"/>
      <point x="118" y="696" type="curve" smooth="yes"/>
      <point x="119" y="670"/>
      <point x="100" y="656"/>
    </contour>
    <contour>
      <point x="284" y="656" type="curve" smooth="yes"/>
      <point x="258" y="656"/>
      <point x="240" y="670"/>
      <point x="239" y="696" type="curve" smooth="yes"/>
      <point x="238" y="723"/>
      <point x="256" y="737"/>
      <point x="282" y="737" type="curve" smooth="yes"/>
      <point x="307" y="737"/>
      <point x="326" y="723"/>
      <point x="327" y="696" type="curve" smooth="yes"/>
      <point x="328" y="670"/>
      <point x="309" y="656"/>
    </contour>
    <contour>
      <point x="238" y="900" type="curve" smooth="yes"/>
      <point x="154" y="779" type="line"/>
      <point x="153" y="765" type="line"/>
      <point x="165" y="765" type="line"/>
      <point x="282" y="869" type="line" smooth="yes"/>
      <point x="299" y="885"/>
      <point x="318" y="902"/>
      <point x="318" y="920" type="curve" smooth="yes"/>
      <point x="317" y="933"/>
      <point x="305" y="943"/>
      <point x="288" y="943" type="curve" smooth="yes"/>
      <point x="266" y="943"/>
      <point x="256" y="927"/>
    </contour>
    <component base="dotlessi"/>
  </outline>
</glyph>
<glyph name="dong" format="2">
  <advance width="652"/>
  <unicode hex="20AB"/>
  <outline>
    <contour>
      <point x="227" y="-11" type="curve" smooth="yes"/>
      <point x="342" y="-11"/>
      <point x="424" y="74"/>
      <point x="497" y="208" type="curve"/>
      <point x="489" y="240" type="line"/>
      <point x="417" y="113"/>
      <point x="336" y="20"/>
      <point x="227" y="20" type="curve" smooth="yes"/>
      <point x="137" y="20"/>
      <point x="100" y="94"/>
      <point x="97" y="185" type="curve" smooth="yes"/>
      <point x="95" y="256"/>
      <point x="112" y="324"/>
      <point x="146" y="377" type="curve" smooth="yes"/>
      <point x="189" y="443"/>
      <point x="259" y="487"/>
      <point x="352" y="487" type="curve" smooth="yes"/>
      <point x="437" y="487"/>
      <point x="506" y="437"/>
      <point x="521" y="348" type="curve"/>
      <point x="541" y="381" type="line"/>
      <point x="525" y="469"/>
      <point x="445" y="518"/>
      <point x="351" y="518" type="curve" smooth="yes"/>
      <point x="163" y="518"/>
      <point x="48" y="361"/>
      <point x="53" y="185" type="curve" smooth="yes"/>
      <point x="56" y="74"/>
      <point x="106" y="-11"/>
    </contour>
    <contour>
      <point x="539" y="-7" type="curve" smooth="yes"/>
      <point x="567" y="-7"/>
      <point x="600" y="4"/>
      <point x="614" y="13" type="curve"/>
      <point x="618" y="42" type="line"/>
      <point x="609" y="40"/>
      <point x="579" y="24"/>
      <point x="538" y="24" type="curve" smooth="yes"/>
      <point x="513" y="24"/>
      <point x="497" y="34"/>
      <point x="496" y="58" type="curve" smooth="yes"/>
      <point x="495" y="79"/>
      <point x="501" y="113"/>
      <point x="504" y="139" type="curve" smooth="yes"/>
      <point x="610" y="735" type="line"/>
      <point x="569" y="735" type="line"/>
      <point x="472" y="174" type="line"/>
      <point x="470" y="172" type="line"/>
      <point x="462" y="136"/>
      <point x="453" y="85"/>
      <point x="454" y="58" type="curve" smooth="yes"/>
      <point x="455" y="12"/>
      <point x="491" y="-7"/>
    </contour>
    <contour>
      <point x="84" y="-157" type="line"/>
      <point x="532" y="-157" type="line"/>
      <point x="538" y="-126" type="line"/>
      <point x="90" y="-126" type="line"/>
    </contour>
    <contour>
      <point x="334" y="598" type="line"/>
      <point x="695" y="598" type="line"/>
      <point x="700" y="629" type="line"/>
      <point x="339" y="629" type="line"/>
    </contour>
  </outline>
</glyph>
<glyph name="arrowleft" format="2">
  <advance width="860"/>
  <unicode hex="2190"/>
  <outline>
    <contour>
      <point x="481" y="560" type="line"/>
      <point x="71" y="360" type="line"/>
      <point x="71" y="346" type="line"/>
      <point x="493" y="146" type="line"/>
      <point x="505" y="159" type="line"/>
      <point x="338" y="324" type="line"/>
      <point x="804" y="324" type="line"/>
      <point x="802" y="382" type="line"/>
      <point x="336" y="382" type="line"/>
      <point x="493" y="547" type="line"/>
    </contour>
  </outline>
</glyph>
<glyph name="uni25B5" format="2">
  <advance width="728"/>
  <unicode hex="25B5"/>
  <outline>
    <contour>
      <point x="682" y="91" type="line"/>
      <point x="58" y="91" type="line"/>
      <point x="359" y="464" type="line"/>
    </contour>
    <contour>
      <point x="580" y="141" type="line"/>
      <point x="573" y="125" type="line"/>
      <point x="355" y="380" type="line"/>
      <point x="367" y="380" type="line"/>
      <point x="165" y="125" type="line"/>
      <point x="155" y="141" type="line"/>
    </contour>
  </outline>
</glyph>
<glyph name="E.alt" format="2">
  <advance width="683"/>
  <outline>
    <contour>
      <point x="599" y="189" type="line"/>
      <point x="571" y="189" type="line"/>
      <point x="539" y="74" type="line" smooth="yes"/>
      <point x="531" y="38"/>
      <point x="488" y="31"/>
      <point x="388" y="31" type="curve" smooth="yes"/>
      <point x="151" y="31" type="line"/>
      <point x="264" y="679" type="line"/>
      <point x="463" y="679" type="line" smooth="yes"/>
      <point x="564" y="679"/>
      <point x="605" y="672"/>
      <point x="603" y="636" type="curve" smooth="yes"/>
      <point x="596" y="546" type="line"/>
      <point x="623" y="546" type="line"/>
      <point x="653" y="710" type="line"/>
      <point x="119" y="710" type="line"/>
      <point x="112" y="679" type="line"/>
      <point x="125" y="679" type="line" smooth="yes"/>
      <point x="182" y="679"/>
      <point x="224" y="672"/>
      <point x="219" y="643" type="curve" smooth="yes"/>
      <point x="115" y="67" type="line" smooth="yes"/>
      <point x="110" y="38"/>
      <point x="69" y="31"/>
      <point x="12" y="31" type="curve" smooth="yes"/>
      <point x="-2" y="31" type="line"/>
      <point x="-8" y="0" type="line"/>
      <point x="565" y="0" type="line"/>
    </contour>
    <contour>
      <point x="189" y="379" type="line"/>
      <point x="185" y="349" type="line"/>
      <point x="450" y="349" type="line"/>
      <point x="486" y="349"/>
      <point x="488" y="320"/>
      <point x="484" y="285" type="curve" smooth="yes"/>
      <point x="483" y="278" type="line"/>
      <point x="512" y="278" type="line"/>
      <point x="541" y="451" type="line"/>
      <point x="513" y="451" type="line"/>
      <point x="512" y="444" type="line" smooth="yes"/>
      <point x="507" y="409"/>
      <point x="488" y="379"/>
      <point x="452" y="379" type="curve"/>
    </contour>
  </outline>
</glyph>
<glyph name="breve_acute.uc" format="2">
  <advance width="594"/>
  <anchor x="292" y="744" name="_top"/>
  <outline>
    <contour>
      <point x="388" y="1022" type="curve" smooth="yes"/>
      <point x="284" y="930" type="line"/>
      <point x="283" y="916" type="line"/>
      <point x="298" y="916" type="line"/>
      <point x="425" y="987" type="line" smooth="yes"/>
      <point x="456" y="1007"/>
      <point x="468" y="1015"/>
      <point x="467" y="1033" type="curve" smooth="yes"/>
      <point x="467" y="1044"/>
      <point x="460" y="1056"/>
      <point x="441" y="1056" type="curve" smooth="yes"/>
      <point x="422" y="1056"/>
      <point x="408" y="1043"/>
    </contour>
    <component base="breve.uc" xOffset="6"/>
  </outline>
</glyph>
<glyph name="circumflex_acute.uc" format="2">
  <advance width="594"/>
  <anchor x="291" y="749" name="_top"/>
  <outline>
    <contour>
      <point x="490" y="928" type="curve" smooth="yes"/>
      <point x="430" y="849" type="line"/>
      <point x="430" y="835" type="line"/>
      <point x="443" y="835" type="line"/>
      <point x="531" y="904" type="line" smooth="yes"/>
      <point x="555" y="925"/>
      <point x="572" y="937"/>
      <point x="571" y="953" type="curve" smooth="yes"/>
      <point x="571" y="966"/>
      <point x="561" y="975"/>
      <point x="546" y="975" type="curve" smooth="yes"/>
      <point x="527" y="975"/>
      <point x="517" y="961"/>
    </contour>
    <component base="circumflex.uc" xOffset="6"/>
  </outline>
</glyph>
<glyph name="dollar.alt" format="2">
  <advance width="652"/>
  <outline>
    <contour>
      <point x="571" y="200" type="curve" smooth="yes"/>
      <point x="568" y="305"/>
      <point x="462" y="343"/>
      <point x="376" y="378" type="curve" smooth="yes"/>
      <point x="280" y="417"/>
      <point x="184" y="444"/>
      <point x="181" y="532" type="curve" smooth="yes"/>
      <point x="179" y="618"/>
      <point x="251" y="667"/>
      <point x="382" y="667" type="curve" smooth="yes"/>
      <point x="490" y="667"/>
      <point x="570" y="632"/>
      <point x="594" y="592" type="curve"/>
      <point x="610" y="607"/>
      <point x="584" y="633"/>
      <point x="565" y="636" type="curve"/>
      <point x="550" y="550" type="line"/>
      <point x="601" y="550" type="line"/>
      <point x="614" y="633" type="line"/>
      <point x="586" y="658"/>
      <point x="508" y="698"/>
      <point x="381" y="698" type="curve" smooth="yes"/>
      <point x="233" y="698"/>
      <point x="133" y="635"/>
      <point x="136" y="532" type="curve" smooth="yes"/>
      <point x="139" y="430"/>
      <point x="233" y="391"/>
      <point x="317" y="356" type="curve" smooth="yes"/>
      <point x="413" y="316"/>
      <point x="523" y="288"/>
      <point x="526" y="199" type="curve" smooth="yes"/>
      <point x="529" y="95"/>
      <point x="445" y="39"/>
      <point x="317" y="39" type="curve" smooth="yes"/>
      <point x="200" y="39"/>
      <point x="96" y="70"/>
      <point x="40" y="138" type="curve"/>
      <point x="44" y="125"/>
      <point x="58" y="94"/>
      <point x="74" y="88" type="curve"/>
      <point x="90" y="182" type="line"/>
      <point x="40" y="182" type="line"/>
      <point x="25" y="97" type="line"/>
      <point x="71" y="55"/>
      <point x="176" y="8"/>
      <point x="317" y="8" type="curve" smooth="yes"/>
      <point x="477" y="8"/>
      <point x="574" y="85"/>
    </contour>
    <contour>
      <point x="379" y="684" type="line"/>
      <point x="418" y="684" type="line"/>
      <point x="436" y="787" type="line"/>
      <point x="396" y="787" type="line"/>
    </contour>
    <contour>
      <point x="275" y="-120" type="line"/>
      <point x="299" y="18" type="line"/>
      <point x="259" y="19" type="line"/>
      <point x="236" y="-120" type="line"/>
    </contour>
  </outline>
</glyph>
<glyph name="f.italic" format="2">
  <advance width="450"/>
  <outline>
    <contour>
      <point x="40" y="508" type="line"/>
      <point x="42" y="451" type="line"/>
      <point x="437" y="451" type="line"/>
      <point x="435" y="508" type="line"/>
    </contour>
    <contour>
      <point x="467" y="742" type="line"/>
      <point x="446" y="748"/>
      <point x="408" y="752"/>
      <point x="374" y="752" type="curve" smooth="yes"/>
      <point x="265" y="752"/>
      <point x="156" y="710"/>
      <point x="160" y="571" type="curve" smooth="yes"/>
      <point x="175" y="81" type="line" smooth="yes"/>
      <point x="176" y="52"/>
      <point x="137" y="45"/>
      <point x="73" y="45" type="curve" smooth="yes"/>
      <point x="60" y="45" type="line"/>
      <point x="61" y="0" type="line"/>
      <point x="406" y="0" type="line"/>
      <point x="405" y="45" type="line"/>
      <point x="390" y="45" type="line" smooth="yes"/>
      <point x="327" y="45"/>
      <point x="279" y="48"/>
      <point x="278" y="55" type="curve" smooth="yes"/>
      <point x="263" y="571" type="line" smooth="yes"/>
      <point x="260" y="673"/>
      <point x="309" y="696"/>
      <point x="375" y="696" type="curve" smooth="yes"/>
      <point x="411" y="696"/>
      <point x="444" y="687"/>
      <point x="469" y="679" type="curve"/>
    </contour>
  </outline>
</glyph>
<glyph name="five.oldtab" format="2">
  <advance width="652"/>
  <outline>
    <contour>
      <point x="306" y="-151" type="curve" smooth="yes"/>
      <point x="486" y="-151"/>
      <point x="600" y="-38"/>
      <point x="596" y="105" type="curve" smooth="yes"/>
      <point x="592" y="229"/>
      <point x="493" y="305"/>
      <point x="359" y="305" type="curve" smooth="yes"/>
      <point x="263" y="305"/>
      <point x="185" y="267"/>
      <point x="132" y="198" type="curve"/>
      <point x="145" y="197"/>
      <point x="151" y="208"/>
      <point x="155" y="204" type="curve"/>
      <point x="213" y="528" type="line"/>
      <point x="195" y="510" type="line"/>
      <point x="591" y="510" type="line"/>
      <point x="606" y="548" type="line"/>
      <point x="184" y="548" type="line"/>
      <point x="118" y="179" type="line"/>
      <point x="145" y="179" type="line"/>
      <point x="200" y="243"/>
      <point x="266" y="274"/>
      <point x="362" y="274" type="curve" smooth="yes"/>
      <point x="483" y="274"/>
      <point x="549" y="205"/>
      <point x="552" y="105" type="curve" smooth="yes"/>
      <point x="556" y="-25"/>
      <point x="462" y="-120"/>
      <point x="305" y="-120" type="curve" smooth="yes"/>
      <point x="142" y="-120"/>
      <point x="94" y="-24"/>
      <point x="70" y="29" type="curve"/>
      <point x="36" y="14" type="line"/>
      <point x="71" y="-64"/>
      <point x="140" y="-151"/>
    </contour>
  </outline>
</glyph>
<glyph name="seven.oldtab" format="2">
  <advance width="652"/>
  <outline>
    <contour>
      <point x="301" y="510" type="line" smooth="yes"/>
      <point x="202" y="510"/>
      <point x="158" y="503"/>
      <point x="147" y="467" type="curve" smooth="yes"/>
      <point x="121" y="377" type="line"/>
      <point x="93" y="377" type="line"/>
      <point x="121" y="548" type="line"/>
      <point x="643" y="548" type="line"/>
      <point x="638" y="510" type="line"/>
      <point x="455" y="342"/>
      <point x="298" y="177"/>
      <point x="237" y="-138" type="curve"/>
      <point x="192" y="-138" type="line"/>
      <point x="260" y="184"/>
      <point x="438" y="380"/>
      <point x="613" y="525" type="curve"/>
      <point x="625" y="510" type="line"/>
    </contour>
  </outline>
</glyph>
<glyph name="six.oldtab" format="2">
  <advance width="652"/>
  <outline>
    <contour>
      <point x="339" y="-10" type="curve" smooth="yes"/>
      <point x="499" y="-10"/>
      <point x="610" y="112"/>
      <point x="606" y="250" type="curve" smooth="yes"/>
      <point x="603" y="365"/>
      <point x="514" y="459"/>
      <point x="361" y="459" type="curve" smooth="yes"/>
      <point x="251" y="459"/>
      <point x="148" y="396"/>
      <point x="92" y="291" type="curve"/>
      <point x="103" y="264" type="line"/>
      <point x="159" y="368"/>
      <point x="254" y="428"/>
      <point x="364" y="428" type="curve" smooth="yes"/>
      <point x="486" y="428"/>
      <point x="559" y="349"/>
      <point x="562" y="250" type="curve" smooth="yes"/>
      <point x="564" y="212"/>
      <point x="556" y="175"/>
      <point x="539" y="141" type="curve" smooth="yes"/>
      <point x="504" y="72"/>
      <point x="433" y="21"/>
      <point x="337" y="21" type="curve" smooth="yes"/>
      <point x="219" y="21"/>
      <point x="117" y="94"/>
      <point x="113" y="242" type="curve" smooth="yes"/>
      <point x="112" y="268"/>
      <point x="111" y="296"/>
      <point x="114" y="324" type="curve" smooth="yes"/>
      <point x="150" y="535"/>
      <point x="355" y="687"/>
      <point x="603" y="709" type="curve"/>
      <point x="602" y="740" type="line"/>
      <point x="264" y="709"/>
      <point x="62" y="468"/>
      <point x="68" y="250" type="curve" smooth="yes"/>
      <point x="73" y="78"/>
      <point x="197" y="-10"/>
    </contour>
  </outline>
</glyph>
<glyph name="whiteuppointingtriangle" format="2">
  <advance width="752"/>
  <outline>
    <contour>
      <point x="718" y="91" type="line"/>
      <point x="395" y="464" type="line"/>
      <point x="94" y="91" type="line"/>
    </contour>
    <contour>
      <point x="609" y="125" type="line"/>
      <point x="617" y="141" type="line"/>
      <point x="192" y="141" type="line"/>
      <point x="201" y="125" type="line"/>
      <point x="403" y="380" type="line"/>
      <point x="391" y="380" type="line"/>
    </contour>
  </outline>
</glyph>
<glyph name="zero.slashlin" format="2">
  <advance width="652"/>
  <outline>
    <contour>
      <point x="290" y="-11" type="curve" smooth="yes"/>
      <point x="501" y="-11"/>
      <point x="626" y="213"/>
      <point x="619" y="453" type="curve" smooth="yes"/>
      <point x="614" y="623"/>
      <point x="509" y="720"/>
      <point x="375" y="720" type="curve" smooth="yes"/>
      <point x="164" y="720"/>
      <point x="40" y="496"/>
      <point x="47" y="257" type="curve" smooth="yes"/>
      <point x="52" y="86"/>
      <point x="156" y="-11"/>
    </contour>
    <contour>
      <point x="289" y="20" type="curve" smooth="yes"/>
      <point x="163" y="20"/>
      <point x="95" y="110"/>
      <point x="91" y="256" type="curve" smooth="yes"/>
      <point x="90" y="286"/>
      <point x="92" y="329"/>
      <point x="100" y="375" type="curve" smooth="yes"/>
      <point x="139" y="577"/>
      <point x="240" y="689"/>
      <point x="376" y="689" type="curve" smooth="yes"/>
      <point x="502" y="689"/>
      <point x="571" y="599"/>
      <point x="575" y="453" type="curve" smooth="yes"/>
      <point x="576" y="423"/>
      <point x="573" y="380"/>
      <point x="565" y="334" type="curve" smooth="yes"/>
      <point x="526" y="132"/>
      <point x="424" y="20"/>
    </contour>
    <contour>
      <point x="84" y="158" type="line"/>
      <point x="596" y="517" type="line"/>
      <point x="582" y="549" type="line"/>
      <point x="71" y="189" type="line"/>
    </contour>
  </outline>
</glyph>
